<?xml version="1.0" encoding="UTF-8" standalone="no" ?>
<!DOCTYPE svg PUBLIC "-//W3C//DTD SVG 1.1//EN" "http://www.w3.org/Graphics/SVG/1.1/DTD/svg11.dtd">
<svg xmlns="http://www.w3.org/2000/svg" xmlns:xlink="http://www.w3.org/1999/xlink" version="1.1" width="1080" height="1080" viewBox="0 0 1080 1080" xml:space="preserve">
<desc>Created with Fabric.js 4.2.0</desc>
<defs>
</defs>
<rect x="0" y="0" width="100%" height="100%" fill="transparent"></rect>
<g transform="matrix(1 0 0 1 540 540)" id="b7919bfc-f37f-48e3-96e3-f35a096645f4"  >
<rect style="stroke: none; stroke-width: 1; stroke-dasharray: none; stroke-linecap: butt; stroke-dashoffset: 0; stroke-linejoin: miter; stroke-miterlimit: 4; fill: rgb(255,255,255); fill-rule: nonzero; opacity: 1; visibility: hidden;" vector-effect="non-scaling-stroke"  x="-540" y="-540" rx="0" ry="0" width="1080" height="1080" />
</g>
<g transform="matrix(1 0 0 1 540 540)" id="c4bc3519-0f46-4581-9538-8d3b636d1e4c"  >
</g>
<g transform="matrix(0.95 0 0 0.95 456.91 200.55)"  >
<g style="" vector-effect="non-scaling-stroke"   >
		<g transform="matrix(0.67 0 0 0.67 -303.6 -147.39)"  >
<path style="stroke: none; stroke-width: 1; stroke-dasharray: none; stroke-linecap: butt; stroke-dashoffset: 0; stroke-linejoin: miter; stroke-miterlimit: 4; fill: rgb(0,177,136); fill-rule: nonzero; opacity: 1;" vector-effect="non-scaling-stroke"  transform=" translate(-234.91, -67.46)" d="M 440.45 105.573 L 29.368 105.573 L 29.368 29.363 L 440.452 29.363 z M 469.819 0 L 0 0 L 0 134.921 L 469.818 134.921 z" stroke-linecap="round" />
</g>
		<g transform="matrix(0.67 0 0 0.67 0 74.96)"  >
<path style="stroke: none; stroke-width: 1; stroke-dasharray: none; stroke-linecap: butt; stroke-dashoffset: 0; stroke-linejoin: miter; stroke-miterlimit: 4; fill: rgb(35,31,32); fill-rule: nonzero; opacity: 1;" vector-effect="non-scaling-stroke"  transform=" translate(-686.47, -398.19)" d="M 29.367 357.916 L 0 357.916 L 0 222.994 L 29.367 222.994 L 29.367 276.311 L 81.837 276.311 L 81.837 222.99399999999997 L 111.20400000000001 222.99399999999997 L 111.20400000000001 357.91599999999994 L 81.837 357.91599999999994 L 81.837 302.00199999999995 L 29.367000000000004 302.00199999999995 L 29.367000000000004 357.91599999999994 M 155.678 298.76199999999994 L 190.658 298.76199999999994 C 190.006 288.8399999999999 185.911 281.9239999999999 174.462 281.9239999999999 C 165.82399999999998 281.9239999999999 158.266 285.60099999999994 155.678 298.76199999999994 z M 177.915 360.07499999999993 C 148.12 360.07499999999993 127.82799999999999 341.29099999999994 127.82799999999999 310.43499999999995 C 127.82799999999999 280.41599999999994 147.69199999999998 259.69599999999997 174.034 259.69599999999997 C 202.749 259.69599999999997 217 278.90799999999996 217 307.62399999999997 L 217 318.421 L 155.678 318.421 C 159.141 333.305 170.795 337.186 182.458 337.186 C 192.603 337.186 199.938 335.036 209.004 329.414 L 210.094 329.414 L 210.094 351.651 C 202.321 357.273 191.29999999999998 360.075 177.915 360.075 M 293.643 301.36 L 278.527 357.916 L 252.837 357.916 L 223.469 262.926 L 223.469 261.846 L 251.542 261.846 L 267.515 318.626 L 282.631 261.846 L 305.52099999999996 261.846 L 320.85099999999994 318.626 L 337.04699999999997 261.846 L 364.03999999999996 261.846 L 364.03999999999996 262.926 L 334.67299999999994 357.916 L 308.97299999999996 357.916 L 293.643 301.359 M 411.74399999999997 360.075 C 388.42699999999996 360.075 378.924 350.795 378.924 328.995 L 378.924 223.004 L 407.42499999999995 223.004 L 407.42499999999995 327.05 C 407.42499999999995 333.742 410.013 336.116 415.62499999999994 336.116 C 417.57099999999997 336.116 420.38199999999995 335.474 422.10499999999996 334.822 L 422.542 334.822 L 422.542 358.353 C 420.16799999999995 359.209 416.063 360.075 411.74399999999997 360.075 M 458.38699999999994 298.762 L 493.36699999999996 298.762 C 492.71599999999995 288.84 488.61999999999995 281.924 477.17099999999994 281.924 C 468.5419999999999 281.924 460.9749999999999 285.601 458.38699999999994 298.762 z M 480.62399999999997 360.075 C 450.82899999999995 360.075 430.537 341.291 430.537 310.435 C 430.537 280.416 450.40099999999995 259.696 476.743 259.696 C 505.45799999999997 259.696 519.709 278.908 519.709 307.624 L 519.709 318.42100000000005 L 458.38699999999994 318.42100000000005 C 461.84099999999995 333.30500000000006 473.50399999999996 337.18600000000004 485.1569999999999 337.18600000000004 C 495.31299999999993 337.18600000000004 502.64699999999993 335.03600000000006 511.7229999999999 329.41400000000004 L 512.8029999999999 329.41400000000004 L 512.8029999999999 351.65100000000007 C 505.02999999999986 357.2730000000001 494.0189999999999 360.07500000000005 480.6239999999999 360.07500000000005 M 636.7299999999999 261.84600000000006 L 657.8879999999999 261.84600000000006 L 657.8879999999999 284.72600000000006 L 636.7309999999999 284.72600000000006 L 636.7309999999999 323.8 C 636.7309999999999 332.224 639.9699999999999 336.115 648.6079999999998 336.115 C 650.9809999999999 336.115 654.0069999999998 335.892 657.2459999999999 334.812 L 657.8879999999999 334.812 L 657.8879999999999 357.262 C 654.2209999999999 358.566 648.608 360.065 640.4079999999999 360.065 C 617.2949999999998 360.065 608.2289999999999 349.491 608.2289999999999 325.095 L 608.2289999999999 284.725 L 571.741 284.725 L 571.741 323.8 C 571.741 332.224 574.981 336.115 583.609 336.115 C 585.9920000000001 336.115 589.017 335.892 592.2570000000001 334.812 L 592.8990000000001 334.812 L 592.8990000000001 357.262 C 589.2310000000001 358.566 583.6090000000002 360.065 575.4190000000001 360.065 C 552.306 360.065 543.2400000000001 349.491 543.2400000000001 325.095 L 543.2400000000001 284.725 L 528.5520000000001 284.725 L 528.5520000000001 261.845 L 543.2400000000001 261.845 L 543.2400000000001 235.51300000000003 L 571.7410000000001 235.51300000000003 L 571.7410000000001 261.845 L 608.229 261.845 L 608.229 235.51300000000003 L 636.731 235.51300000000003 L 636.731 261.845 M 753.92 289.26800000000003 C 768.8309999999999 289.26800000000003 775.943 280.85400000000004 775.943 268.76200000000006 C 775.943 256.23400000000004 768.831 247.81900000000005 753.92 247.81900000000005 L 735.3499999999999 247.81900000000005 L 735.3499999999999 289.26900000000006 z M 805.747 268.76200000000006 C 805.747 298.13000000000005 786.097 314.09200000000004 756.293 314.09200000000004 L 735.35 314.09200000000004 L 735.35 357.91600000000005 L 706.0020000000001 357.91600000000005 L 706.0020000000001 222.994 L 756.2930000000001 222.994 C 786.0980000000001 222.994 805.7470000000001 238.967 805.7470000000001 268.762 M 868.354 327.692 L 868.354 319.492 C 864.034 317.127 858.431 316.262 852.595 316.262 C 843.315 316.262 837.702 319.706 837.702 327.478 C 837.702 335.474 843.315 338.927 851.729 338.927 C 859.716 338.927 865.7660000000001 334.822 868.354 327.692 z M 869.219 348.422 C 862.955 355.97900000000004 853.6840000000001 359.64700000000005 843.734 359.64700000000005 C 824.9590000000001 359.64700000000005 809.62 348.21700000000004 809.62 327.90700000000004 C 809.62 309.13200000000006 824.96 296.612 846.973 296.612 C 853.88 296.612 861.019 297.692 868.353 299.84200000000004 L 868.353 298.13000000000005 C 868.353 287.76000000000005 862.5269999999999 283.2370000000001 847.2059999999999 283.2370000000001 C 837.4789999999999 283.2370000000001 828.199 286.02900000000005 820.2029999999999 290.5710000000001 L 819.1329999999998 290.5710000000001 L 819.1329999999998 267.6830000000001 C 826.4669999999998 263.3730000000001 839.4329999999998 259.6960000000001 852.1579999999998 259.6960000000001 C 881.0969999999998 259.6960000000001 896.8549999999998 273.5100000000001 896.8549999999998 297.69200000000006 L 896.8549999999998 357.91600000000005 L 869.22 357.91600000000005 L 869.22 348.42100000000005 M 911.32 309.99700000000007 C 911.32 279.12200000000007 933.138 259.69700000000006 961.6400000000001 259.69700000000006 C 971.7850000000001 259.69700000000006 981.2800000000001 261.85600000000005 988.4100000000001 267.03100000000006 L 988.4100000000001 291.42800000000005 L 987.32 291.42800000000005 C 981.056 286.68100000000004 973.7220000000001 283.869 965.307 283.869 C 951.057 283.869 940.259 293.596 940.259 309.997 C 940.259 326.398 951.056 335.90200000000004 965.307 335.90200000000004 C 973.722 335.90200000000004 981.057 333.09100000000007 987.321 328.33400000000006 L 988.4100000000001 328.33400000000006 L 988.4100000000001 352.73100000000005 C 981.2800000000001 357.91600000000005 971.7850000000001 360.07500000000005 961.6400000000001 360.07500000000005 C 933.1380000000001 360.07500000000005 911.32 340.87200000000007 911.32 309.99700000000007 M 1034.8200000000002 314.3160000000001 L 1034.8200000000002 357.9160000000001 L 1006.3280000000002 357.9160000000001 L 1006.3280000000002 222.994 L 1034.8200000000002 222.994 L 1034.8200000000002 299.842 L 1063.545 261.846 L 1095.928 261.846 L 1095.928 262.926 L 1061.3850000000002 306.53499999999997 L 1095.928 356.835 L 1095.928 357.91499999999996 L 1063.3210000000001 357.91499999999996 L 1034.8200000000002 314.316 M 1159.8370000000002 327.69199999999995 L 1159.8370000000002 319.49199999999996 C 1155.5270000000003 317.12699999999995 1149.9050000000002 316.26199999999994 1144.0790000000002 316.26199999999994 C 1134.7990000000002 316.26199999999994 1129.1860000000001 319.70599999999996 1129.1860000000001 327.47799999999995 C 1129.1860000000001 335.47399999999993 1134.7980000000002 338.92699999999996 1143.2040000000002 338.92699999999996 C 1151.2090000000003 338.92699999999996 1157.2500000000002 334.82199999999995 1159.8370000000002 327.69199999999995 z M 1160.7030000000002 348.42199999999997 C 1154.4390000000003 355.979 1145.1490000000001 359.647 1135.2270000000003 359.647 C 1116.4330000000002 359.647 1101.1120000000003 348.217 1101.1120000000003 327.907 C 1101.1120000000003 309.132 1116.4330000000002 296.61199999999997 1138.4750000000004 296.61199999999997 C 1145.3820000000003 296.61199999999997 1152.4930000000004 297.69199999999995 1159.8370000000004 299.842 L 1159.8370000000004 298.13 C 1159.8370000000004 287.76 1154.0100000000004 283.23699999999997 1138.6800000000005 283.23699999999997 C 1128.9720000000004 283.23699999999997 1119.6730000000005 286.02899999999994 1111.6860000000006 290.57099999999997 L 1110.6060000000007 290.57099999999997 L 1110.6060000000007 267.683 C 1117.9510000000007 263.373 1130.9080000000006 259.69599999999997 1143.6410000000008 259.69599999999997 C 1172.5890000000009 259.69599999999997 1188.3480000000009 273.51 1188.3480000000009 297.69199999999995 L 1188.3480000000009 357.91599999999994 L 1160.7030000000009 357.91599999999994 L 1160.7030000000009 348.42099999999994 M 1236.275000000001 277.39099999999996 C 1241.451000000001 266.80799999999994 1249.018000000001 260.76699999999994 1259.602000000001 260.76699999999994 C 1263.483000000001 260.76699999999994 1267.365000000001 261.63199999999995 1268.863000000001 262.49799999999993 L 1268.863000000001 289.6959999999999 L 1267.793000000001 289.6959999999999 C 1264.553000000001 288.3929999999999 1260.672000000001 287.5359999999999 1255.273000000001 287.5359999999999 C 1246.421000000001 287.5359999999999 1239.515000000001 292.7209999999999 1237.132000000001 302.6439999999999 L 1237.132000000001 357.9159999999999 L 1208.640000000001 357.9159999999999 L 1208.640000000001 261.8459999999999 L 1236.275000000001 261.8459999999999 L 1236.275000000001 277.3909999999999 M 1344.445000000001 325.3179999999999 L 1344.445000000001 294.4429999999999 C 1339.698000000001 287.5369999999999 1333.4430000000011 284.5209999999999 1326.303000000001 284.5209999999999 C 1313.793000000001 284.5209999999999 1305.370000000001 293.5959999999999 1305.370000000001 309.9969999999999 C 1305.370000000001 326.3979999999999 1313.793000000001 335.2499999999999 1326.303000000001 335.2499999999999 C 1333.4430000000011 335.2499999999999 1339.698000000001 332.2249999999999 1344.445000000001 325.31799999999987 z M 1345.301000000001 347.99299999999994 C 1339.261000000001 355.76499999999993 1329.757000000001 360.07499999999993 1316.809000000001 360.07499999999993 C 1292.1890000000012 360.07499999999993 1276.4310000000012 337.6329999999999 1276.4310000000012 309.99699999999996 C 1276.4310000000012 282.36199999999997 1292.1890000000012 259.69699999999995 1316.809000000001 259.69699999999995 C 1329.329000000001 259.69699999999995 1338.3950000000011 263.58699999999993 1344.445000000001 270.70699999999994 L 1344.445000000001 223.00399999999993 L 1372.946000000001 223.00399999999993 L 1372.946000000001 357.91599999999994 L 1345.301000000001 357.91599999999994 L 1345.301000000001 347.99299999999994 M 0 401.98 L 83.345 401.98 L 83.345 418.38100000000003 L 18.784 418.38100000000003 L 18.784 459.607 L 77.294 459.607 L 77.294 475.58900000000006 L 18.784 475.58900000000006 L 18.784 520.4910000000001 L 83.344 520.4910000000001 L 83.344 536.8910000000001 L 0 536.8910000000001 L 0 401.9810000000001 M 152.216 439.9670000000001 C 173.58700000000002 439.9670000000001 185.464 454.0030000000001 185.464 477.0870000000001 L 185.464 536.892 L 167.546 536.892 L 167.546 477.52500000000003 C 167.546 465.21900000000005 161.28199999999998 456.367 147.682 456.367 C 136.457 456.367 126.95299999999999 463.497 123.71399999999998 473.634 L 123.71399999999998 536.892 L 105.79599999999999 536.892 L 105.79599999999999 441.91200000000003 L 123.714 441.91200000000003 L 123.714 455.725 C 129.327 446.87300000000005 138.82999999999998 439.96700000000004 152.216 439.96700000000004 M 233.62400000000002 441.91200000000003 L 258.021 441.91200000000003 L 258.021 457.242 L 233.62400000000002 457.242 L 233.62400000000002 508.4 C 233.62400000000002 519.188 239.23700000000002 522.865 249.38300000000004 522.865 C 252.18500000000003 522.865 255.21000000000004 522.436 257.369 521.571 L 258.021 521.571 L 258.021 536.8910000000001 C 255.43300000000002 537.9710000000001 251.75600000000003 538.8370000000001 246.79500000000002 538.8370000000001 C 224.549 538.8370000000001 215.70600000000002 528.6820000000001 215.70600000000002 510.1310000000001 L 215.70600000000002 457.2420000000001 L 199.29600000000002 457.2420000000001 L 199.29600000000002 441.9120000000001 L 215.70600000000002 441.9120000000001 L 215.70600000000002 416.6680000000001 L 233.62400000000002 416.6680000000001 L 233.62400000000002 441.91200000000015 M 288.03000000000003 480.11200000000014 L 335.31500000000005 480.11200000000014 C 334.67300000000006 466.08500000000015 327.75700000000006 455.29700000000014 313.07800000000003 455.29700000000014 C 299.47900000000004 455.29700000000014 290.61800000000005 465.44300000000015 288.03000000000003 480.11200000000014 z M 316.31800000000004 538.8370000000001 C 288.458 538.8370000000001 269.461 520.267 269.461 490.4820000000001 C 269.461 460.6860000000001 287.165 439.9670000000001 312.86400000000003 439.9670000000001 C 338.992 439.9670000000001 352.591 458.7500000000001 352.591 486.5910000000001 L 352.591 494.8010000000001 L 287.38 494.8010000000001 C 289.325 514.0130000000001 301.64 523.2930000000001 318.692 523.2930000000001 C 329.27500000000003 523.2930000000001 336.824 520.9190000000001 345.248 514.6550000000001 L 345.9 514.6550000000001 L 345.9 530.4230000000001 C 338.12699999999995 536.4630000000001 327.972 538.8370000000001 316.31899999999996 538.8370000000001 M 391.667 456.5900000000001 C 395.772 446.4450000000001 404.847 440.4040000000001 415.197 440.4040000000001 C 419.312 440.4040000000001 422.979 441.0460000000001 424.487 441.9120000000001 L 424.487 459.6070000000001 L 423.845 459.6070000000001 C 421.24800000000005 458.32200000000006 416.92900000000003 457.6710000000001 412.61 457.6710000000001 C 402.902 457.6710000000001 394.692 464.1400000000001 391.66700000000003 474.9370000000001 L 391.66700000000003 536.8920000000002 L 373.749 536.8920000000002 L 373.749 441.91200000000015 L 391.66700000000003 441.91200000000015 L 391.66700000000003 456.5910000000001 M 482.346 522.6410000000001 C 500.05 522.6410000000001 510.42 508.6140000000001 510.42 489.3930000000001 C 510.42 470.4040000000001 500.05 456.16300000000007 482.346 456.16300000000007 C 472.629 456.16300000000007 463.563 461.9890000000001 458.81600000000003 471.26000000000005 L 458.81600000000003 507.75700000000006 C 463.56300000000005 517.028 472.629 522.6410000000001 482.346 522.6410000000001 z M 485.371 439.9670000000001 C 513.65 439.9670000000001 528.766 463.0690000000001 528.766 489.3930000000001 C 528.766 515.743 513.65 538.8370000000001 485.371 538.8370000000001 C 473.70799999999997 538.8370000000001 463.777 532.7970000000001 458.815 526.3090000000001 L 458.815 573.3790000000001 L 440.888 573.3790000000001 L 440.888 441.913 L 458.815 441.913 L 458.815 452.7 C 463.777 446.007 473.70799999999997 439.967 485.371 439.967 M 567.85 456.59 C 571.946 446.445 581.022 440.404 591.3820000000001 440.404 C 595.4860000000001 440.404 599.1540000000001 441.046 600.662 441.912 L 600.662 459.60699999999997 L 600.019 459.60699999999997 C 597.432 458.32199999999995 593.113 457.671 588.794 457.671 C 579.076 457.671 570.876 464.14 567.851 474.937 L 567.851 536.892 L 549.933 536.892 L 549.933 441.91200000000003 L 567.851 441.91200000000003 L 567.851 456.591 M 626.576 403.488 C 632.84 403.488 638.0160000000001 408.449 638.0160000000001 414.714 C 638.0160000000001 420.978 632.84 425.939 626.576 425.939 C 620.535 425.939 615.126 420.978 615.126 414.714 C 615.126 408.449 620.535 403.488 626.576 403.488 M 617.724 536.892 L 635.6510000000001 536.892 L 635.6510000000001 441.91200000000003 L 617.724 441.91200000000003 z M 699.5600000000001 481.41600000000005 C 713.1600000000001 485.72600000000006 728.267 491.3380000000001 728.267 509.47 C 728.267 528.9060000000001 712.2940000000001 538.837 691.788 538.837 C 679.259 538.837 666.74 535.812 659.61 530.199 L 659.61 513.1469999999999 L 660.476 513.1469999999999 C 668.471 520.482 680.3389999999999 523.7209999999999 691.565 523.7209999999999 C 701.711 523.7209999999999 710.7860000000001 519.8309999999999 710.7860000000001 511.6299999999999 C 710.7860000000001 503.21499999999986 703.2370000000001 501.26999999999987 688.326 496.30899999999986 C 674.94 491.98899999999986 660.047 487.01899999999983 660.047 469.10999999999984 C 660.047 450.7549999999998 675.155 439.96699999999987 694.376 439.96699999999987 C 705.601 439.96699999999987 715.533 442.33999999999986 723.519 447.73899999999986 L 723.519 465.0149999999999 L 722.877 465.0149999999999 C 715.1139999999999 458.7499999999999 706.03 455.0739999999999 694.804 455.0739999999999 C 683.578 455.0739999999999 677.314 460.0439999999999 677.314 466.7369999999999 C 677.314 474.2949999999999 684.221 476.44499999999994 699.56 481.4159999999999 M 762.39 480.1119999999999 L 809.6659999999999 480.1119999999999 C 809.0239999999999 466.0849999999999 802.117 455.2969999999999 787.429 455.2969999999999 C 773.829 455.2969999999999 764.978 465.4429999999999 762.39 480.1119999999999 z M 790.668 538.8369999999999 C 762.818 538.8369999999999 743.82 520.2669999999998 743.82 490.48199999999986 C 743.82 460.68599999999986 761.5250000000001 439.96699999999987 787.215 439.96699999999987 C 813.3520000000001 439.96699999999987 826.942 458.7499999999999 826.942 486.5909999999999 L 826.942 494.8009999999999 L 761.739 494.8009999999999 C 763.6840000000001 514.0129999999999 775.989 523.2929999999999 793.042 523.2929999999999 C 803.634 523.2929999999999 811.183 520.9189999999999 819.5980000000001 514.6549999999999 L 820.249 514.6549999999999 L 820.249 530.4229999999999 C 812.486 536.4629999999999 802.331 538.8369999999999 790.669 538.8369999999999" stroke-linecap="round" />
</g>
</g>
</g>
</svg>