<?xml version="1.0" encoding="UTF-8"?>
<svg xmlns="http://www.w3.org/2000/svg" xmlns:xlink="http://www.w3.org/1999/xlink" viewBox="0 0 32 32" width="32px" height="32px">
<g id="surface52287368">
<path style=" stroke:none;fill-rule:nonzero;fill:rgb(41.960785%,36.470589%,29.019609%);fill-opacity:1;" d="M 16 2.882812 L 3 9.382812 L 3 22.617188 L 16 29.117188 L 29 22.617188 L 29 9.382812 Z M 16 5.117188 L 27 10.617188 L 27 21.382812 L 16 26.882812 L 5 21.382812 L 5 10.617188 Z M 13 10 C 9.699219 10 7 12.699219 7 16 C 7 19.300781 9.699219 22 13 22 C 14.5 22 15.902344 21.398438 16.902344 20.5 L 15.199219 19.300781 C 14.597656 19.699219 13.800781 20 13 20 C 10.800781 20 9 18.199219 9 16 C 9 13.800781 10.800781 12 13 12 C 13.800781 12 14.597656 12.300781 15.199219 12.699219 L 16.902344 11.5 C 15.902344 10.601562 14.5 10 13 10 Z M 18 12 L 18 13 L 17 13 L 17 15 L 18 15 L 18 17 L 17 17 L 17 19 L 18 19 L 18 20 L 20 20 L 20 19 L 22 19 L 22 20 L 24 20 L 24 19 L 25 19 L 25 17 L 24 17 L 24 15 L 25 15 L 25 13 L 24 13 L 24 12 L 22 12 L 22 13 L 20 13 L 20 12 Z M 20 15 L 22 15 L 22 17 L 20 17 Z M 20 15 "/>
</g>
</svg>
