<?xml version="1.0" encoding="UTF-8"?>
<svg xmlns="http://www.w3.org/2000/svg" xmlns:xlink="http://www.w3.org/1999/xlink" viewBox="0 0 50 50" width="50px" height="50px">
<g id="surface52272408">
<path style=" stroke:none;fill-rule:evenodd;fill:rgb(41.960785%,36.470589%,29.019609%);fill-opacity:1;" d="M 39 40 L 25 44 L 11 40 L 8 6 L 42 6 C 41 17.332031 40 28.667969 39 40 Z M 39.816406 8 L 10.183594 8 L 12.871094 38.453125 L 25 41.921875 L 37.128906 38.453125 Z M 16.800781 28 L 20.800781 28 L 20.898438 30.5 L 25 31.898438 L 29.101562 30.5 L 29.398438 26 L 20.601562 26 L 20.398438 22 L 29.601562 22 L 29.898438 18 L 16.101562 18 L 15.800781 14 L 34.101562 14 L 33.601562 22 L 32.898438 33.5 L 25 36.101562 L 17.101562 33.5 Z M 16.800781 28 "/>
</g>
</svg>
