<?xml version="1.0" encoding="UTF-8"?>
<svg xmlns="http://www.w3.org/2000/svg" xmlns:xlink="http://www.w3.org/1999/xlink" viewBox="0 0 50 50" width="50px" height="50px">
<g id="surface20719424">
<path style=" stroke:none;fill-rule:nonzero;fill:rgb(41.960785%,36.470589%,29.019609%);fill-opacity:1;" d="M 24 2 C 16.832031 2 11 10.292969 11 20.488281 C 11 25.753906 12.566406 30.496094 15.058594 33.859375 C 14.871094 34.882812 15.144531 35.9375 15.808594 36.738281 C 16.472656 37.535156 17.460938 38 18.5 38 C 20.433594 38 22 36.433594 22 34.5 C 22 32.566406 20.433594 31 18.5 31 C 18.308594 31 18.121094 31.019531 17.933594 31.050781 C 16.144531 28.386719 15 24.613281 15 20.488281 C 15 12.632812 19.121094 6 24 6 C 28.117188 6 31.6875 10.738281 32.703125 16.9375 C 34.125 17.34375 35.542969 17.898438 36.929688 18.566406 C 36.25 9.269531 30.710938 2 24 2 Z M 22.5 17 C 20.566406 17 19 18.566406 19 20.5 C 19 22.433594 20.566406 24 22.5 24 C 23.835938 24 25.054688 23.238281 25.640625 22.042969 C 28.890625 21.835938 32.644531 22.839844 36.113281 24.917969 C 42.972656 29.03125 46.703125 36.222656 44.257812 40.625 C 43.453125 42.070312 42.003906 43.109375 40.070312 43.628906 C 37.28125 44.371094 33.859375 43.992188 30.492188 42.640625 C 29.421875 43.632812 28.246094 44.566406 26.964844 45.425781 C 30.289062 47.105469 33.808594 47.996094 37.0625 47.996094 C 38.472656 47.996094 39.832031 47.832031 41.105469 47.492188 C 44.109375 46.683594 46.410156 44.980469 47.753906 42.566406 C 51.339844 36.117188 47.128906 26.859375 38.171875 21.488281 C 33.90625 18.933594 29.183594 17.753906 25.035156 18.09375 C 24.375 17.398438 23.460938 17 22.5 17 Z M 9.160156 23.324219 C 2.078125 28.796875 -0.957031 36.800781 2.246094 42.566406 C 3.589844 44.980469 5.890625 46.683594 8.898438 47.488281 C 10.167969 47.832031 11.527344 47.996094 12.9375 47.996094 C 16.738281 47.996094 20.910156 46.789062 24.707031 44.511719 C 28.953125 41.96875 32.097656 38.542969 33.875 34.960938 C 35.628906 34.773438 37 33.300781 37 31.5 C 37 29.570312 35.429688 28 33.5 28 C 31.570312 28 30 29.570312 30 31.5 C 30 32.039062 30.132812 32.546875 30.351562 33.003906 C 28.90625 35.980469 26.214844 38.945312 22.648438 41.082031 C 18.355469 43.65625 13.601562 44.609375 9.929688 43.625 C 7.996094 43.109375 6.546875 42.070312 5.742188 40.621094 C 3.808594 37.144531 5.746094 31.921875 10.027344 27.855469 C 9.617188 26.414062 9.324219 24.898438 9.160156 23.324219 Z M 9.160156 23.324219 "/>
</g>
</svg>
