<?xml version="1.0" encoding="UTF-8"?>
<svg xmlns="http://www.w3.org/2000/svg" xmlns:xlink="http://www.w3.org/1999/xlink" viewBox="0 0 2000 2000" version="1.1">
<g id="surface1">
<path style=" stroke:none;fill-rule:nonzero;fill:rgb(26.666667%,9.803922%,36.862745%);fill-opacity:1;" d="M 902.585938 1196.382812 C 892.613281 1195.175781 877.300781 1191.425781 869.484375 1188.277344 L 863.046875 1185.683594 L 863.046875 1149.597656 C 863.324219 1149.597656 866.332031 1150.996094 869.734375 1152.703125 C 877.976562 1156.84375 891.523438 1161.1875 901.558594 1162.90625 C 920.207031 1166.09375 934.183594 1163.359375 940.207031 1155.335938 C 942.710938 1152 943.179688 1145.148438 941.183594 1140.957031 C 938.921875 1136.183594 933.714844 1132.953125 915.621094 1125.09375 C 885.851562 1112.167969 879.769531 1108.886719 872.886719 1102.03125 C 863.386719 1092.5625 859.882812 1083.976562 859.859375 1070.105469 C 859.808594 1037.839844 888.589844 1017.984375 929.78125 1021.867188 C 944.601562 1023.265625 959.46875 1026.519531 965.664062 1029.71875 L 968.335938 1031.097656 L 967.183594 1065.675781 L 958.335938 1061.886719 C 946.210938 1056.691406 937.972656 1054.785156 925.417969 1054.269531 C 916.414062 1053.894531 913.234375 1054.121094 909.164062 1055.402344 C 897.703125 1059.003906 894.148438 1068.570312 901.480469 1076.082031 C 905.996094 1080.703125 909.5 1082.605469 930.257812 1091.664062 C 952.207031 1101.246094 959.585938 1105.347656 966.902344 1112.035156 C 976.394531 1120.703125 980.289062 1130.285156 980.289062 1144.988281 C 980.289062 1160.035156 975.304688 1171.570312 964.699219 1181.089844 C 958.433594 1186.714844 945.03125 1193.300781 936.15625 1195.121094 C 927.289062 1196.9375 911.953125 1197.511719 902.585938 1196.382812 Z M 233.039062 1194.644531 C 222.152344 1191.792969 213.800781 1187 205.984375 1179.109375 C 198.027344 1171.074219 193.863281 1163.523438 191.632812 1153.070312 C 189.765625 1144.304688 190.429688 1130.097656 193.046875 1122.65625 C 199.324219 1104.839844 214.773438 1091.652344 235.910156 1086.074219 C 242.253906 1084.398438 246.722656 1084.066406 268.4375 1083.667969 L 293.609375 1083.203125 C 291.519531 1062.324219 280.476562 1056.480469 266.714844 1054.992188 C 247.71875 1054.949219 229.492188 1057.113281 212.417969 1064.023438 L 212.917969 1029.683594 C 234.679688 1023.0625 259.820312 1018.820312 281.277344 1022.226562 C 302.851562 1025.996094 317.691406 1036.203125 325.089844 1052.359375 C 329.9375 1062.9375 330.164062 1066.496094 330.164062 1132.21875 L 330.164062 1192.789062 L 293.46875 1192.789062 L 292.921875 1180.796875 C 284.714844 1187.152344 274.859375 1192.800781 265.714844 1195.046875 C 257.378906 1197.011719 241.308594 1196.816406 233.039062 1194.644531 Z M 233.039062 1194.644531 "/>
<path style=" stroke:none;fill-rule:nonzero;fill:rgb(100%,100%,100%);fill-opacity:1;" d="M 265.148438 1162.015625 C 277.617188 1158.085938 284.53125 1152.144531 293.378906 1143.875 L 293.378906 1116.375 L 270.621094 1116.707031 C 249.746094 1117.011719 247.441406 1117.207031 242.769531 1119.066406 C 237.375 1121.214844 232.050781 1126.019531 229.539062 1131.011719 C 226.5 1137.042969 227.855469 1147.890625 232.40625 1153.984375 C 238.445312 1162.0625 252.089844 1165.410156 265.148438 1162.015625 Z M 265.148438 1162.015625 "/>
<path style=" stroke:none;fill-rule:nonzero;fill:rgb(26.666667%,9.803922%,36.862745%);fill-opacity:1;" d="M 393.613281 1195.148438 C 384.730469 1192.679688 376.277344 1186.691406 371.90625 1179.769531 C 370.734375 1177.914062 368.824219 1173.773438 367.667969 1170.574219 C 363.417969 1128.542969 365.117188 1112.382812 364.644531 1057.242188 L 341.199219 1056.726562 L 341.199219 1024.675781 L 364.644531 1024.160156 L 365.566406 981.199219 L 401.859375 968.640625 L 402.347656 1024.160156 L 443.269531 1024.652344 L 443.269531 1056.75 L 402.347656 1057.242188 L 402.347656 1104.109375 C 402.347656 1149.570312 402.40625 1151.085938 404.234375 1154.652344 C 407.179688 1160.390625 412.367188 1162.550781 423.152344 1162.53125 C 429.941406 1162.667969 436.34375 1161.226562 442.855469 1159.707031 C 443.484375 1171.277344 443.269531 1180.125 443.269531 1192.605469 C 427.367188 1194.90625 409.191406 1199 393.613281 1195.148438 Z M 756.941406 1195.105469 C 727.523438 1188.433594 708.417969 1171.621094 699.902344 1144.914062 C 693.582031 1125.085938 693.589844 1094.164062 699.925781 1074.242188 C 708.398438 1047.613281 730.234375 1027.839844 756.835938 1022.707031 C 771.808594 1019.816406 791.46875 1022.109375 803.414062 1028.132812 C 831.257812 1042.175781 846.476562 1076.527344 842.675781 1116.746094 L 842.089844 1122.949219 L 733.847656 1122.949219 L 733.847656 1125.511719 C 733.847656 1129.222656 736.289062 1138.019531 738.539062 1142.433594 C 741.449219 1148.132812 748.808594 1155.402344 754.464844 1158.171875 C 763.070312 1162.382812 770.53125 1163.644531 783.503906 1163.082031 C 797.445312 1162.472656 808.808594 1159.632812 820.515625 1153.839844 L 828.5625 1149.855469 L 828.5625 1184.621094 L 821.4375 1187.882812 C 808.335938 1193.875 799.097656 1195.699219 779.824219 1196.089844 C 767.222656 1196.347656 761.292969 1196.089844 756.941406 1195.101562 Z M 756.941406 1195.105469 "/>
<path style=" stroke:none;fill-rule:nonzero;fill:rgb(100%,100%,98.431373%);fill-opacity:1;" d="M 804.328125 1090.304688 C 804.625 1089.535156 804.183594 1086.179688 803.347656 1082.851562 C 798.6875 1064.320312 787.164062 1054.640625 769.699219 1054.589844 C 762.859375 1054.570312 761.121094 1054.921875 755.90625 1057.375 C 748.984375 1060.59375 743.238281 1065.890625 739.46875 1072.527344 C 736.367188 1077.957031 733.328125 1088.101562 734.160156 1090.265625 Z M 804.328125 1090.304688 "/>
<path style=" stroke:none;fill-rule:nonzero;fill:rgb(26.666667%,9.803922%,36.862745%);fill-opacity:1;" d="M 1037.300781 1195.273438 C 1024.378906 1191.570312 1015.519531 1183.25 1011.367188 1170.925781 C 1009.332031 1164.878906 1009.285156 1163.730469 1008.8125 1111 L 1008.335938 1057.242188 L 984.886719 1056.726562 L 984.886719 1024.675781 L 1008.335938 1024.160156 L 1009.253906 981.242188 L 1045.332031 968.574219 L 1046.039062 1024.160156 L 1086.039062 1024.652344 L 1086.039062 1056.746094 L 1046.039062 1057.242188 L 1046.039062 1104.570312 C 1046.039062 1150.351562 1046.097656 1152 1047.890625 1155.109375 C 1050.863281 1160.265625 1056.507812 1162.535156 1066.398438 1162.550781 C 1073.832031 1162.558594 1080.398438 1161.671875 1084.5 1160.097656 L 1083.96875 1193.222656 C 1082.832031 1193.480469 1080.039062 1194.136719 1077.761719 1194.675781 C 1071.140625 1196.25 1042.195312 1196.675781 1037.300781 1195.273438 Z M 0.960938 969.445312 L 37.105469 969.941406 L 133.609375 1125.683594 L 134.296875 969.480469 L 170.160156 969.480469 L 170.160156 1192.828125 L 134.164062 1192.328125 L 37.679688 1038.910156 L 36.824219 1192.789062 L 0.960938 1192.789062 Z M 494.296875 1191.640625 C 479.054688 1117.527344 462.488281 1043.675781 447.636719 969.480469 L 486.488281 969.820312 L 516.699219 1118.804688 L 554.917969 969.480469 L 591.246094 969.480469 L 629.511719 1120.070312 C 639.730469 1070.390625 648.355469 1020.042969 657.523438 970.050781 L 694.308594 970.640625 C 679.144531 1048.808594 666.480469 1109.714844 650.167969 1192.546875 C 637.390625 1192.804688 624.617188 1192.789062 611.839844 1192.789062 L 592.21875 1115.546875 L 571.945312 1039.503906 C 557.492188 1093.480469 547.003906 1134.722656 532.003906 1192.78125 L 494.296875 1191.636719 Z M 494.296875 1191.640625 "/>
<path style=" stroke:none;fill-rule:nonzero;fill:rgb(89.411765%,1.568627%,12.54902%);fill-opacity:1;" d="M 475.453125 583.175781 L 611.015625 813.949219 L 880.515625 813.949219 L 745.410156 583.175781 Z M 475.453125 583.175781 "/>
<path style=" stroke:none;fill-rule:nonzero;fill:rgb(81.960784%,3.529412%,9.019608%);fill-opacity:1;" d="M 880.515625 349.644531 L 1014.554688 583.175781 L 880.515625 813.949219 L 745.410156 583.175781 Z M 880.515625 349.644531 "/>
<path style=" stroke:none;fill-rule:nonzero;fill:rgb(89.411765%,1.568627%,12.54902%);fill-opacity:1;" d="M 275.140625 231.664062 L 543.960938 231.664062 L 678.332031 0 L 408.785156 0 Z M 275.140625 231.664062 "/>
<path style=" stroke:none;fill-rule:nonzero;fill:rgb(81.960784%,3.529412%,9.019608%);fill-opacity:1;" d="M 678.332031 0 L 812.710938 231.664062 L 678.332031 464.3125 L 543.960938 231.664062 Z M 678.332031 0 "/>
<path style=" stroke:none;fill-rule:nonzero;fill:rgb(89.411765%,1.568627%,12.54902%);fill-opacity:1;" d="M 206.269531 349.644531 L 73.0625 583.175781 L 341.847656 583.175781 L 475.453125 349.644531 Z M 206.269531 349.644531 "/>
<path style=" stroke:none;fill-rule:nonzero;fill:rgb(81.960784%,3.529412%,9.019608%);fill-opacity:1;" d="M 73.0625 583.175781 L 206.269531 813.949219 L 475.453125 813.949219 L 341.847656 583.175781 Z M 73.0625 583.175781 "/>
</g>
</svg>
