<?xml version="1.0" encoding="UTF-8" standalone="no" ?>
<!DOCTYPE svg PUBLIC "-//W3C//DTD SVG 1.1//EN" "http://www.w3.org/Graphics/SVG/1.1/DTD/svg11.dtd">
<svg xmlns="http://www.w3.org/2000/svg" xmlns:xlink="http://www.w3.org/1999/xlink" version="1.1" width="1080" height="1080" viewBox="0 0 1080 1080" xml:space="preserve">
<desc>Created with Fabric.js 4.2.0</desc>
<defs>
</defs>
<rect x="0" y="0" width="100%" height="100%" fill="transparent"></rect>
<g transform="matrix(1 0 0 1 540 540)" id="b6107eac-9d36-4e33-b55c-41069f677374"  >
<rect style="stroke: none; stroke-width: 1; stroke-dasharray: none; stroke-linecap: butt; stroke-dashoffset: 0; stroke-linejoin: miter; stroke-miterlimit: 4; fill: rgb(255,255,255); fill-rule: nonzero; opacity: 1; visibility: hidden;" vector-effect="non-scaling-stroke"  x="-540" y="-540" rx="0" ry="0" width="1080" height="1080" />
</g>
<g transform="matrix(1 0 0 1 540 540)" id="c879e7f5-ca8e-4685-a37a-e2cfd1ec2e47"  >
</g>
<g transform="matrix(1.74 0 0 1.74 536.87 151.05)"  >
<g style="" vector-effect="non-scaling-stroke"   >
		<g transform="matrix(1 0 0 1 43.53 7.9)"  >
<path style="stroke: none; stroke-width: 1; stroke-dasharray: none; stroke-linecap: butt; stroke-dashoffset: 0; stroke-linejoin: miter; stroke-miterlimit: 4; fill: rgb(0,44,88); fill-rule: nonzero; opacity: 1;" vector-effect="non-scaling-stroke"  transform=" translate(-212.13, -283.05)" d="M 258.8 342.2 C 266.1 342.2 270.5 337 271.40000000000003 331.4 C 272.20000000000005 326.4 269.70000000000005 320.59999999999997 262.50000000000006 320.59999999999997 C 255.20000000000005 320.59999999999997 250.80000000000007 325.79999999999995 249.90000000000006 331.4 C 249.1 336.4 251.6 342.2 258.8 342.2 M 258.6 345.2 C 249.90000000000003 345.2 245.60000000000002 338.2 246.70000000000002 331.2 C 247.8 324.4 253.4 317.59999999999997 262.70000000000005 317.59999999999997 C 271.40000000000003 317.59999999999997 275.70000000000005 324.59999999999997 274.6 331.59999999999997 C 273.5 338.4 268.2 345.2 258.6 345.2 M 306.6 326.4 L 297.5 344.7 L 294.3 344.7 L 291.6 330.59999999999997 L 284.3 344.7 L 281 344.7 L 277.6 326.4 L 280.70000000000005 326.4 L 283.20000000000005 340.9 L 290.70000000000005 326.4 L 293.40000000000003 326.4 L 296.20000000000005 340.9 L 303.20000000000005 326.4 L 306.6 326.4 z M 319.7 326 C 324.2 326 326.7 329.1 326 333.6 L 324.2 344.8 L 321.09999999999997 344.8 L 322.9 333.8 C 323.4 330.40000000000003 321.59999999999997 328.90000000000003 318.9 328.90000000000003 C 316.29999999999995 328.90000000000003 313.7 330.8 312.2 332.6 L 310.3 344.8 L 307.2 344.8 L 310.09999999999997 326.5 L 312.79999999999995 326.5 L 312.29999999999995 329.4 C 314.1 327.5 316.7 326 319.7 326 M 350.7 326 C 352.8 326 354.7 326.6 356.4 327.7 L 355.9 330.59999999999997 C 354.59999999999997 329.4 352.79999999999995 328.9 351 328.9 C 347.4 328.9 343.3 330.7 342.5 335.7 C 341.8 340.4 344.8 342.5 348.7 342.5 C 350.7 342.5 352.7 341.8 354.5 340.9 L 354 344.09999999999997 C 352.1 344.9 350.2 345.4 348 345.4 C 343 345.4 338.5 342.2 339.5 335.5 C 340.4 328.6 346 326 350.7 326 M 365.3 318 L 363.5 328.9 C 365.3 327.29999999999995 367.8 325.9 370.4 325.9 C 374.9 325.9 377.4 329 376.7 333.5 L 374.9 344.7 L 372 344.7 L 373.8 333.7 C 374.3 330.3 372.5 328.8 369.8 328.8 C 367.2 328.8 364.6 330.7 363.1 332.6 L 361.20000000000005 344.8 L 358 344.8 L 362.2 318.1 L 365.3 318.1 z M 388.9 342.4 C 392.29999999999995 342.4 395.09999999999997 340.2 396.5 337.79999999999995 L 397.2 333.19999999999993 C 396.59999999999997 330.8999999999999 394.5 328.79999999999995 391.3 328.79999999999995 C 387.7 328.79999999999995 384.3 331.29999999999995 383.6 335.59999999999997 C 383 339.7 385.4 342.4 388.9 342.4 M 388.4 345.2 C 383.09999999999997 345.2 379.79999999999995 341 380.7 335.4 C 381.5 330 386 326 391.2 326 C 394.8 326 396.9 327.8 398.2 329.6 L 398.7 326.40000000000003 L 401.4 326.40000000000003 L 398.5 344.70000000000005 L 395.8 344.70000000000005 L 396.3 341.6 C 394.4 343.7 391.8 345.2 388.4 345.2 M 416.6 326 C 421.1 326 423.6 329.1 422.90000000000003 333.6 L 421.1 344.8 L 418.1 344.8 L 419.90000000000003 333.8 C 420.40000000000003 330.40000000000003 418.6 328.90000000000003 415.90000000000003 328.90000000000003 C 413.3 328.90000000000003 410.70000000000005 330.8 409.20000000000005 332.6 L 407.30000000000007 344.8 L 404.20000000000005 344.8 L 407.1 326.5 L 409.8 326.5 L 409.3 329.4 C 411 327.5 413.6 326 416.6 326 M 434.9 342.4 C 438.29999999999995 342.4 441.09999999999997 340.29999999999995 442.5 338.09999999999997 L 443.3 333.2 C 442.7 330.9 440.6 328.8 437.3 328.8 C 433.7 328.8 430.3 331.3 429.6 335.6 C 429 339.7 431.4 342.4 434.9 342.4 M 433.6 353.6 C 430.20000000000005 353.6 427.8 352.90000000000003 426 351.70000000000005 L 426.5 348.80000000000007 C 428.3 350.1000000000001 430.4 350.80000000000007 433.4 350.80000000000007 C 437.4 350.80000000000007 440.79999999999995 349.00000000000006 441.5 344.70000000000005 L 441.9 342.1 C 440.29999999999995 343.70000000000005 437.9 345.3 434.4 345.3 C 429.09999999999997 345.3 425.79999999999995 341.1 426.7 335.5 C 427.5 330.1 432 326.1 437.2 326.1 C 440.8 326.1 442.9 327.8 444.09999999999997 329.90000000000003 L 444.59999999999997 326.6 L 447.4 326.6 L 444.5 345 C 443.5 351.2 438.6 353.6 433.6 353.6 M 460.9 328.8 C 457.59999999999997 328.8 454.4 330.90000000000003 453.59999999999997 334.40000000000003 L 465.49999999999994 334.40000000000003 C 466.1 332.3 465.5 328.8 460.9 328.8 M 460.9 326 C 467.9 326 469.79999999999995 331.8 467.79999999999995 337.1 L 453.19999999999993 337.1 C 452.99999999999994 341 456.49999999999994 342.40000000000003 459.79999999999995 342.40000000000003 C 462.19999999999993 342.40000000000003 464.49999999999994 341.8 466.29999999999995 340.8 L 465.79999999999995 343.90000000000003 C 463.99999999999994 344.70000000000005 461.69999999999993 345.20000000000005 459.19999999999993 345.20000000000005 C 454.3999999999999 345.20000000000005 449.29999999999995 342.1 450.29999999999995 335.50000000000006 C 451.4 329.2 456.5 326 460.9 326 M 132.4 252.9 L 165.8 293.8 L 144.10000000000002 293.8 L 112.90000000000002 255.70000000000002 L 112.90000000000002 293.8 L 93.3 293.8 L 93.3 212.5 L 112.9 212.5 L 112.9 249.3 L 113.10000000000001 249.3 L 137.9 212.5 L 159.5 212.5 L 132.4 252.9 z M -18.8 293.8 L -18.8 229.5 L -44.3 229.5 L -44.3 212.6 L 26.5 212.6 L 26.5 229.5 L 1 229.5 L 1 293.8 L -18.8 293.8 z M 30.6 293.8 L 30.6 212.60000000000002 L 88.5 212.60000000000002 L 88.5 228.90000000000003 L 50.1 228.90000000000003 L 50.1 245.50000000000003 L 86.7 245.50000000000003 L 86.7 260.40000000000003 L 50.1 260.40000000000003 L 50.1 277.6 L 89.1 277.6 L 89.1 293.90000000000003 L 30.6 293.90000000000003 z M 463 250.2 L 463.3 250.2 C 463.6 250.2 463.90000000000003 250.1 463.90000000000003 249.79999999999998 C 463.90000000000003 249.49999999999997 463.70000000000005 249.39999999999998 463.3 249.39999999999998 C 463.1 249.39999999999998 463 249.39999999999998 463 249.39999999999998 L 463 250.2 z M 462.9 251.7 L 462.29999999999995 251.7 L 462.29999999999995 248.89999999999998 C 462.49999999999994 248.89999999999998 462.9 248.79999999999998 463.4 248.79999999999998 C 463.9 248.79999999999998 464.2 248.89999999999998 464.29999999999995 248.99999999999997 C 464.49999999999994 249.09999999999997 464.59999999999997 249.29999999999998 464.59999999999997 249.59999999999997 C 464.59999999999997 249.89999999999998 464.4 250.19999999999996 463.99999999999994 250.29999999999995 L 463.99999999999994 250.29999999999995 C 464.29999999999995 250.39999999999995 464.3999999999999 250.59999999999997 464.49999999999994 250.99999999999994 C 464.59999999999997 251.39999999999995 464.59999999999997 251.59999999999994 464.69999999999993 251.69999999999993 L 464 251.69999999999993 C 463.9 251.59999999999994 463.9 251.39999999999992 463.8 250.99999999999994 C 463.7 250.69999999999993 463.6 250.59999999999994 463.2 250.59999999999994 L 462.9 250.59999999999994 L 462.9 251.7 z M 461.3 250.3 C 461.3 251.5 462.2 252.5 463.40000000000003 252.5 C 464.6 252.5 465.50000000000006 251.5 465.50000000000006 250.3 C 465.50000000000006 249.10000000000002 464.6000000000001 248.10000000000002 463.40000000000003 248.10000000000002 C 462.2 248.1 461.3 249.1 461.3 250.3 M 466.2 250.3 C 466.2 251.8 465 253.10000000000002 463.4 253.10000000000002 C 461.79999999999995 253.10000000000002 460.59999999999997 251.90000000000003 460.59999999999997 250.3 C 460.59999999999997 248.8 461.9 247.5 463.49999999999994 247.5 C 465 247.5 466.2 248.7 466.2 250.3 M 186 294.3 C 185.7 294.3 185.5 294.3 185.2 294.3 C 182.6 294.3 180 293.90000000000003 177.79999999999998 293.2 C 170.49999999999997 291.09999999999997 166.1 285.9 166.1 279.4 L 166.1 278.79999999999995 L 169.1 278.79999999999995 L 169.1 279.4 C 169.1 284.5 172.6 288.59999999999997 178.6 290.4 C 180.7 291 183 291.4 185.29999999999998 291.4 C 185.49999999999997 291.4 185.79999999999998 291.4 185.99999999999997 291.4 C 187.89999999999998 291.4 189.99999999999997 291.09999999999997 191.89999999999998 290.5 C 197.49999999999997 288.9 200.59999999999997 285.3 200.59999999999997 280.8 C 200.59999999999997 273.40000000000003 192.89999999999998 272.40000000000003 184.69999999999996 271.40000000000003 L 184.39999999999995 271.40000000000003 C 175.79999999999995 270.3 166.79999999999995 269.20000000000005 166.79999999999995 260.00000000000006 C 166.79999999999995 254.30000000000007 170.69999999999996 249.80000000000007 177.29999999999995 247.90000000000006 C 179.29999999999995 247.30000000000007 181.69999999999996 247.00000000000006 184.39999999999995 247.00000000000006 C 186.79999999999995 247.00000000000006 189.19999999999996 247.30000000000007 191.49999999999994 247.90000000000006 C 198.49999999999994 250.00000000000006 202.49999999999994 254.40000000000006 202.49999999999994 260.1000000000001 L 202.49999999999994 260.7000000000001 L 199.49999999999994 260.7000000000001 L 199.49999999999994 260 C 199.49999999999994 253.9 193.29999999999995 251.4 190.69999999999993 250.7 C 186.19999999999993 249.5 181.59999999999994 249.6 178.09999999999994 250.6 C 172.79999999999993 252.1 169.79999999999993 255.5 169.79999999999993 259.8 C 169.79999999999993 266 175.99999999999991 267.2 184.89999999999992 268.3 C 194.0999999999999 269.40000000000003 203.49999999999991 270.6 203.49999999999991 280.6 C 203.49999999999991 286.6 199.49999999999991 291.20000000000005 192.5999999999999 293.3 C 190.5 294 188.2 294.3 186 294.3 M 216.8 309.7 L 213.60000000000002 309.7 L 220.60000000000002 293.5 L 201.20000000000002 247.4 L 204.4 247.4 L 222.20000000000002 290 L 241.00000000000003 247.4 L 244.20000000000002 247.4 L 216.8 309.7 z M 262 294.3 C 261.7 294.3 261.5 294.3 261.2 294.3 L 261.2 294.3 C 258.59999999999997 294.3 256 293.90000000000003 253.79999999999998 293.2 C 246.49999999999997 291.09999999999997 242.2 285.9 242.2 279.4 L 242.2 278.79999999999995 L 245.2 278.79999999999995 L 245.2 279.4 C 245.2 284.5 248.7 288.59999999999997 254.7 290.4 C 256.8 291 259.09999999999997 291.4 261.5 291.4 C 261.7 291.4 261.9 291.4 262.2 291.4 C 264.09999999999997 291.4 266.2 291.09999999999997 268.09999999999997 290.5 C 273.7 288.9 276.79999999999995 285.3 276.79999999999995 280.8 C 276.79999999999995 273.40000000000003 269.09999999999997 272.40000000000003 260.9 271.40000000000003 L 260.59999999999997 271.40000000000003 C 251.89999999999998 270.3 242.99999999999997 269.20000000000005 242.99999999999997 260.00000000000006 C 242.99999999999997 254.30000000000007 246.89999999999998 249.80000000000007 253.49999999999997 247.90000000000006 C 255.49999999999997 247.30000000000007 257.9 247.00000000000006 260.59999999999997 247.00000000000006 C 262.99999999999994 247.00000000000006 265.4 247.30000000000007 267.7 247.90000000000006 C 274.7 250.00000000000006 278.7 254.40000000000006 278.7 260.1000000000001 L 278.7 260.7000000000001 L 275.7 260.7000000000001 L 275.7 260 C 275.7 253.9 269.5 251.4 266.9 250.7 C 262.4 249.5 257.79999999999995 249.6 254.29999999999998 250.6 C 248.99999999999997 252.1 245.99999999999997 255.5 245.99999999999997 259.8 C 245.99999999999997 266 252.19999999999996 267.2 261.09999999999997 268.3 C 270.29999999999995 269.40000000000003 279.7 270.6 279.7 280.6 C 279.7 286.6 275.7 291.20000000000005 268.8 293.3 C 266.6 294 264.3 294.3 262 294.3 M 298.6 294.1 C 288.6 294.1 286.70000000000005 288.3 286.70000000000005 278.20000000000005 L 286.70000000000005 250.50000000000006 L 278.20000000000005 250.50000000000006 L 278.20000000000005 247.60000000000005 L 286.70000000000005 247.60000000000005 L 286.70000000000005 238.20000000000005 L 289.70000000000005 238.20000000000005 L 289.70000000000005 247.60000000000005 L 302.20000000000005 247.60000000000005 L 302.20000000000005 250.50000000000006 L 289.70000000000005 250.50000000000006 L 289.70000000000005 278.20000000000005 C 289.70000000000005 288.40000000000003 291.30000000000007 292.20000000000005 302.20000000000005 291.00000000000006 L 302.80000000000007 290.90000000000003 L 303.1000000000001 293.8 L 302.50000000000006 293.90000000000003 C 301.1 294 299.8 294.1 298.6 294.1 M 304.3 268.4 L 343.8 268.4 C 342.8 257.4 335 250.09999999999997 324.1 250.09999999999997 C 315.5 250.09999999999997 308.8 254.49999999999997 305.8 262.09999999999997 C 305 264.1 304.5 266.2 304.3 268.4 M 324.1 294.2 C 314.20000000000005 294.2 306.5 289.09999999999997 303 280.2 C 301.9 277.4 301.3 274.09999999999997 301.3 270.59999999999997 C 301.3 267.09999999999997 301.90000000000003 263.9 303 261.09999999999997 C 306.5 252.19999999999996 314.2 247.09999999999997 324.1 247.09999999999997 C 330.5 247.09999999999997 336.1 249.29999999999995 340.3 253.49999999999997 C 344.6 257.79999999999995 346.90000000000003 263.79999999999995 346.8 270.59999999999997 L 346.8 271.2 L 304.3 271.2 C 304.40000000000003 274 304.90000000000003 276.7 305.8 279.09999999999997 C 308.8 286.79999999999995 315.5 291.09999999999997 324.1 291.09999999999997 C 332.40000000000003 291.09999999999997 338.70000000000005 287.2 341.90000000000003 280.09999999999997 L 342.1 279.7 L 345.20000000000005 279.7 L 344.80000000000007 280.59999999999997 C 341.3 289.3 333.8 294.2 324.1 294.2 M 419.7 293.9 L 416.7 293.9 L 416.7 268.09999999999997 C 416.59999999999997 262.2 415.09999999999997 257.49999999999994 412.4 254.59999999999997 C 409.79999999999995 251.69999999999996 406.2 250.29999999999995 401.7 250.29999999999995 L 401.5 250.29999999999995 C 398.3 250.29999999999995 393.8 251.09999999999997 390.6 255.09999999999997 C 388 258.29999999999995 386.70000000000005 262.7 386.70000000000005 268.59999999999997 L 386.70000000000005 293.99999999999994 L 383.70000000000005 293.99999999999994 L 383.70000000000005 268.59999999999997 C 383.70000000000005 262.49999999999994 382.20000000000005 257.79999999999995 379.40000000000003 254.69999999999996 C 376.90000000000003 251.89999999999995 373.20000000000005 250.39999999999995 368.8 250.39999999999995 L 368.6 250.39999999999995 C 365.40000000000003 250.39999999999995 360.90000000000003 251.19999999999996 357.70000000000005 255.19999999999996 C 355.20000000000005 258.09999999999997 353.90000000000003 262.4 353.80000000000007 267.9 L 353.80000000000007 294 L 350.80000000000007 294 L 350.80000000000007 247.5 L 353.80000000000007 247.5 L 353.80000000000007 255.6 C 354.20000000000005 254.7 354.80000000000007 254 355.30000000000007 253.29999999999998 C 359.30000000000007 248.49999999999997 364.70000000000005 247.49999999999997 368.6000000000001 247.49999999999997 L 368.80000000000007 247.49999999999997 C 374.1000000000001 247.49999999999997 378.6000000000001 249.29999999999998 381.70000000000005 252.69999999999996 C 383.20000000000005 254.29999999999995 384.50000000000006 256.69999999999993 385.30000000000007 259.29999999999995 C 386.00000000000006 256.79999999999995 387.30000000000007 254.69999999999996 388.4000000000001 253.29999999999995 C 392.30000000000007 248.49999999999994 397.80000000000007 247.49999999999994 401.6000000000001 247.49999999999994 L 401.80000000000007 247.49999999999994 C 407.1000000000001 247.49999999999994 411.6000000000001 249.29999999999995 414.6000000000001 252.69999999999993 C 417.9000000000001 256.3999999999999 419.6000000000001 261.5999999999999 419.7000000000001 268.29999999999995 L 419.7000000000001 293.9 z M 444.2 294.3 C 443.9 294.3 443.7 294.3 443.4 294.3 L 443.4 294.3 C 440.79999999999995 294.3 438.2 293.90000000000003 436 293.2 C 428.7 291.09999999999997 424.4 285.9 424.4 279.4 L 424.4 278.79999999999995 L 427.4 278.79999999999995 L 427.4 279.4 C 427.4 284.5 430.9 288.59999999999997 436.9 290.4 C 439 291 441.29999999999995 291.4 443.7 291.4 C 443.9 291.4 444.09999999999997 291.4 444.4 291.4 C 446.4 291.4 448.4 291.09999999999997 450.29999999999995 290.5 C 455.9 288.9 458.99999999999994 285.3 458.99999999999994 280.8 C 458.99999999999994 273.40000000000003 451.29999999999995 272.40000000000003 443.09999999999997 271.40000000000003 L 442.79999999999995 271.40000000000003 C 434.09999999999997 270.3 425.19999999999993 269.20000000000005 425.19999999999993 260.00000000000006 C 425.19999999999993 254.30000000000007 429.0999999999999 249.80000000000007 435.69999999999993 247.90000000000006 C 437.69999999999993 247.30000000000007 440.0999999999999 247.00000000000006 442.79999999999995 247.00000000000006 C 445.19999999999993 247.00000000000006 447.59999999999997 247.30000000000007 449.9 247.90000000000006 C 456.9 250.00000000000006 460.9 254.40000000000006 460.9 260.1000000000001 L 460.9 260.7000000000001 L 457.9 260.7000000000001 L 457.9 260 C 457.9 253.9 451.7 251.4 449.09999999999997 250.7 C 444.59999999999997 249.5 439.99999999999994 249.6 436.49999999999994 250.6 C 431.19999999999993 252.1 428.19999999999993 255.5 428.19999999999993 259.8 C 428.19999999999993 266 434.3999999999999 267.2 443.29999999999995 268.3 C 452.49999999999994 269.40000000000003 461.9 270.6 461.9 280.6 C 461.9 286.6 457.9 291.20000000000005 451 293.3 C 448.7 294 446.4 294.3 444.2 294.3" stroke-linecap="round" />
</g>
		<g transform="matrix(1 0 0 1 -270.15 -29.52)"  >
<path style="stroke: none; stroke-width: 1; stroke-dasharray: none; stroke-linecap: butt; stroke-dashoffset: 0; stroke-linejoin: miter; stroke-miterlimit: 4; fill: rgb(0,140,207); fill-rule: nonzero; opacity: 1;" vector-effect="non-scaling-stroke"  transform=" translate(101.56, -245.63)" d="M -109 218.1 C -115.2 218.1 -119.6 218.4 -121.9 219.1 C -122 219.1 -122.10000000000001 219.1 -122.2 219.2 C -126.2 220.1 -128.7 222.39999999999998 -129.5 226.29999999999998 C -130.5 231.2 -124.8 236.99999999999997 -124.7 236.99999999999997 C -124.4 237.29999999999998 -89.80000000000001 266.7 -86.6 269.5 C -83.19999999999999 272.4 -78.6 273.9 -76 272.8 C -74.9 272.3 -74.1 271.8 -73.5 271.3 C -74.5 271.6 -75.5 271.8 -76.5 271.8 C -78.7 271.8 -80.6 271.1 -82.4 269.7 C -88.9 264.59999999999997 -96.4 249.29999999999998 -97.60000000000001 246.5 L -98.10000000000001 245.4 C -100.10000000000001 240.8 -102.9 234.5 -101.30000000000001 226.3 C -100.50000000000001 222.5 -99.30000000000001 219.70000000000002 -98.70000000000002 218.5 C -100.5 218.3 -104.6 218.1 -109 218.1" stroke-linecap="round" />
</g>
		<g transform="matrix(1 0 0 1 -264.96 -62.2)"  >
<path style="stroke: none; stroke-width: 1; stroke-dasharray: none; stroke-linecap: butt; stroke-dashoffset: 0; stroke-linejoin: miter; stroke-miterlimit: 4; fill: rgb(243,152,0); fill-rule: nonzero; opacity: 1;" vector-effect="non-scaling-stroke"  transform=" translate(96.36, -212.95)" d="M -107.9 215.9 C -103.7 215.9 -99.80000000000001 216.1 -97.80000000000001 216.3 L -96.60000000000001 216.4 C -91.60000000000001 216.9 -84.7 217.6 -78.4 223.1 C -75.5 225.6 -73.7 228.1 -72.9 229.2 C -71 226.2 -63.300000000000004 214 -62.00000000000001 208.7 C -62.00000000000001 208.6 -62.00000000000001 208.5 -61.900000000000006 208.39999999999998 C -60.7 204.49999999999997 -61.50000000000001 201.2 -64.4 198.59999999999997 C -65.80000000000001 197.39999999999998 -67.9 196.69999999999996 -70.7 196.69999999999996 C -73.60000000000001 196.69999999999996 -76.10000000000001 197.39999999999995 -76.10000000000001 197.39999999999995 C -76.50000000000001 197.49999999999994 -119.20000000000002 212.89999999999995 -123.20000000000002 214.29999999999995 C -126.90000000000002 215.59999999999997 -130.9 218.59999999999997 -131.3 221.89999999999995 C -131.4 222.99999999999994 -131.4 223.99999999999994 -131.20000000000002 224.79999999999995 C -130.60000000000002 222.09999999999997 -128.8 219.29999999999995 -125.40000000000002 217.89999999999995 C -121.1 216.3 -113.5 215.9 -107.9 215.9" stroke-linecap="round" />
</g>
		<g transform="matrix(1 0 0 1 -244.98 -41.25)"  >
<path style="stroke: none; stroke-width: 1; stroke-dasharray: none; stroke-linecap: butt; stroke-dashoffset: 0; stroke-linejoin: miter; stroke-miterlimit: 4; fill: rgb(0,44,88); fill-rule: nonzero; opacity: 1;" vector-effect="non-scaling-stroke"  transform=" translate(76.38, -233.9)" d="M -95.6 246.4 C -94 249.5 -87.3 262.4 -83.39999999999999 266.1 C -83.3 266.20000000000005 -83.3 266.20000000000005 -83.19999999999999 266.3 C -82.49999999999999 267.1 -80.19999999999999 269.6 -76.49999999999999 269.6 C -75.49999999999999 269.6 -74.49999999999999 269.40000000000003 -73.49999999999999 269.1 C -68.69999999999999 267.5 -66.59999999999998 259.6 -66.59999999999998 259.6 C -66.49999999999999 259.20000000000005 -58.29999999999998 214.50000000000003 -57.49999999999998 210.40000000000003 C -56.69999999999998 206.50000000000003 -57.299999999999976 201.60000000000002 -59.89999999999998 199.60000000000002 C -60.799999999999976 198.90000000000003 -61.699999999999974 198.50000000000003 -62.49999999999998 198.20000000000002 C -60.49999999999998 200.10000000000002 -58.89999999999998 203.00000000000003 -59.49999999999998 206.70000000000002 C -60.69999999999998 214.9 -70.19999999999997 229.00000000000003 -71.99999999999997 231.50000000000003 L -72.69999999999997 232.50000000000003 C -75.69999999999997 236.60000000000002 -79.79999999999997 242.20000000000002 -87.69999999999997 244.80000000000004 C -91.2 246 -94.2 246.3 -95.6 246.4" stroke-linecap="round" />
</g>
</g>
</g>
</svg>